<svg width="120" height="120" viewBox="0 0 120 120" fill="none" xmlns="http://www.w3.org/2000/svg">
<path fill-rule="evenodd" clip-rule="evenodd" d="M91.4062 0C108.75 0 120 11.25 120 28.5938V91.4062C120 108.75 108.75 120 91.4062 120H28.5938C11.25 120 0 108.75 0 91.4062V28.5938C0 11.25 11.25 0 28.5938 0H91.4062Z" fill="#1DA1F2"/>
<path fill-rule="evenodd" clip-rule="evenodd" d="M51.3429 45.8301C51.3429 45.8301 62.4215 43.1191 62.5656 30.0095H71.5734C71.5734 30.0095 72.8531 29.9882 72.8531 30.0095C72.8519 34.8263 72.8531 44.524 72.8531 44.524H83.2612V56.8614H72.8531V71.7388C72.8531 71.7388 72.0988 79.1343 81.8735 75.3675L85.3429 85.7599C85.3429 85.7599 73.8939 94.9621 63.1388 86.2534C63.1388 86.2534 59.3074 83.6132 58.579 76.456V54.8365H51.3429V46.1153V45.8301Z" fill="#0E7CC0"/>
<path fill-rule="evenodd" clip-rule="evenodd" d="M48.5996 26.9199C48.5996 26.9199 48.5996 24 51.9818 24H68.7729V38.709H78.3467V53.9317H69.1148V69.2425H77.3209L81 81.6672C81 81.6672 77.2437 85.7329 69.4567 86.7841C63.8527 87.5405 54.4122 86.4191 49.6253 81.6672C49.6253 81.6672 44.8384 77.2932 44.8384 70.3578V53.9317H38V40.4258C38 40.4258 47.1382 40.4039 48.5996 26.9199Z" fill="white"/>
<path d="M44.408 98.092C44.344 98.308 44.248 98.612 44.12 99.004C44 99.388 43.848 99.872 43.664 100.456C43.488 101.04 43.4 101.352 43.4 101.392C43.4 101.424 43.464 101.44 43.592 101.44C43.728 101.44 44.044 101.352 44.54 101.176C45.036 100.992 45.328 100.9 45.416 100.9C45.616 100.9 45.716 101.036 45.716 101.308C45.716 101.58 45.448 101.908 44.912 102.292C44.376 102.668 43.816 102.856 43.232 102.856C42.976 102.856 42.672 102.716 42.32 102.436C41.968 102.156 41.792 101.872 41.792 101.584C41.792 101.344 41.912 100.84 42.152 100.072C42.4 99.296 42.568 98.764 42.656 98.476C42.344 98.564 42.108 98.608 41.948 98.608C41.788 98.608 41.62 98.5 41.444 98.284C41.268 98.06 41.18 97.848 41.18 97.648C41.18 97.392 41.8 97.176 43.04 97C43.192 96.256 43.268 95.612 43.268 95.068C43.268 94.828 43.388 94.708 43.628 94.708C43.836 94.708 44.1 94.836 44.42 95.092C44.748 95.34 44.912 95.588 44.912 95.836C44.912 96.076 44.86 96.416 44.756 96.856C45.14 96.84 45.432 96.832 45.632 96.832C46.232 96.832 46.532 96.968 46.532 97.24C46.532 97.416 46.356 97.568 46.004 97.696C45.66 97.816 45.128 97.948 44.408 98.092ZM48.4061 101.632C48.8381 101.44 49.2141 101.052 49.5341 100.468C49.8541 99.884 50.0141 99.336 50.0141 98.824C50.0141 98.312 49.9421 97.96 49.7981 97.768C49.4541 97.968 49.1101 98.388 48.7661 99.028C48.4301 99.668 48.2621 100.232 48.2621 100.72C48.2621 101.2 48.3101 101.504 48.4061 101.632ZM46.6541 100.84C46.6541 99.84 46.9621 98.892 47.5781 97.996C48.2021 97.1 48.8181 96.652 49.4261 96.652C50.0341 96.652 50.5461 96.868 50.9621 97.3C51.3781 97.724 51.5861 98.24 51.5861 98.848C51.5861 99.448 51.4421 100.06 51.1541 100.684C50.8661 101.308 50.4621 101.828 49.9421 102.244C49.4221 102.652 48.8661 102.856 48.2741 102.856C47.8341 102.856 47.4541 102.66 47.1341 102.268C46.8141 101.876 46.6541 101.4 46.6541 100.84ZM53.8787 101.632C54.3107 101.44 54.6867 101.052 55.0067 100.468C55.3267 99.884 55.4867 99.336 55.4867 98.824C55.4867 98.312 55.4147 97.96 55.2707 97.768C54.9267 97.968 54.5827 98.388 54.2387 99.028C53.9027 99.668 53.7347 100.232 53.7347 100.72C53.7347 101.2 53.7827 101.504 53.8787 101.632ZM52.1267 100.84C52.1267 99.84 52.4347 98.892 53.0507 97.996C53.6747 97.1 54.2907 96.652 54.8987 96.652C55.5067 96.652 56.0187 96.868 56.4347 97.3C56.8507 97.724 57.0587 98.24 57.0587 98.848C57.0587 99.448 56.9147 100.06 56.6267 100.684C56.3387 101.308 55.9347 101.828 55.4147 102.244C54.8947 102.652 54.3387 102.856 53.7467 102.856C53.3067 102.856 52.9267 102.66 52.6067 102.268C52.2867 101.876 52.1267 101.4 52.1267 100.84ZM65.7354 96.664C66.0474 96.664 66.3074 96.872 66.5154 97.288C66.7234 97.704 66.8274 98.084 66.8274 98.428C66.8274 98.772 66.7594 99.284 66.6234 99.964C66.4954 100.636 66.2874 101.288 65.9994 101.92C65.7194 102.544 65.4154 102.856 65.0874 102.856C64.8234 102.856 64.6914 102.676 64.6914 102.316C64.6914 101.956 64.7954 101.368 65.0034 100.552C65.2114 99.736 65.3154 99.2 65.3154 98.944C65.3154 98.688 65.2754 98.56 65.1954 98.56C65.0274 98.56 64.8274 98.744 64.5954 99.112C64.3634 99.48 64.0834 99.972 63.7554 100.588C63.4354 101.204 63.2354 101.6 63.1554 101.776C63.0754 101.952 63.0074 102.092 62.9514 102.196C62.9034 102.3 62.8474 102.408 62.7834 102.52C62.5274 102.944 62.1874 102.944 61.7634 102.52C61.5474 102.304 61.4394 102.108 61.4394 101.932C61.4394 101.9 61.5034 101.596 61.6314 101.02C61.7674 100.436 61.8354 99.772 61.8354 99.028C61.8354 98.716 61.7994 98.56 61.7274 98.56C61.6314 98.56 61.5194 98.656 61.3914 98.848C61.2634 99.04 61.0674 99.388 60.8034 99.892C60.5394 100.396 60.3114 100.812 60.1194 101.14C59.4474 102.284 58.9354 102.856 58.5834 102.856C58.4074 102.856 58.1874 102.708 57.9234 102.412C57.6674 102.116 57.5394 101.892 57.5394 101.74C57.5394 101.58 57.6274 101.204 57.8034 100.612C57.9874 100.012 58.1034 99.376 58.1514 98.704C58.2074 98.032 58.2554 97.508 58.2954 97.132C58.3434 96.756 58.4394 96.568 58.5834 96.568C58.8874 96.568 59.1794 96.696 59.4594 96.952C59.7474 97.2 59.8914 97.428 59.8914 97.636C59.8914 98.108 59.7194 98.932 59.3754 100.108C59.9354 98.772 60.4074 97.868 60.7914 97.396C61.1994 96.908 61.5914 96.664 61.9674 96.664C62.1754 96.664 62.4314 96.856 62.7354 97.24C63.0474 97.624 63.2034 97.984 63.2034 98.32C63.2034 98.648 63.1994 98.936 63.1914 99.184C63.4394 98.56 63.8154 97.984 64.3194 97.456C64.8234 96.928 65.2954 96.664 65.7354 96.664ZM72.8674 98.908C72.8674 99.3 72.5994 99.652 72.0634 99.964C71.5354 100.276 70.9914 100.432 70.4314 100.432C69.8714 100.432 69.4114 100.392 69.0514 100.312C68.9794 100.528 68.9434 100.744 68.9434 100.96C68.9434 101.176 68.9794 101.332 69.0514 101.428C69.1234 101.516 69.3034 101.56 69.5914 101.56C70.1914 101.56 70.7034 101.504 71.1274 101.392C71.5594 101.28 71.7834 101.224 71.7994 101.224C72.1274 101.224 72.2914 101.332 72.2914 101.548C72.2914 101.86 72.0314 102.156 71.5114 102.436C70.9994 102.716 70.4034 102.856 69.7234 102.856C69.0514 102.856 68.5114 102.644 68.1034 102.22C67.6954 101.796 67.4914 101.296 67.4914 100.72C67.4914 100.136 67.6594 99.528 67.9954 98.896C68.3394 98.264 68.7674 97.736 69.2794 97.312C69.7914 96.88 70.2994 96.664 70.8034 96.664C71.3154 96.664 71.7874 96.916 72.2194 97.42C72.6514 97.916 72.8674 98.412 72.8674 98.908ZM71.4754 98.716C71.4754 98.636 71.3914 98.52 71.2234 98.368C71.0554 98.216 70.8954 98.14 70.7434 98.14C70.5994 98.14 70.4114 98.248 70.1794 98.464C69.9474 98.672 69.7274 98.944 69.5194 99.28C69.5914 99.288 69.6954 99.292 69.8314 99.292C70.9274 99.292 71.4754 99.1 71.4754 98.716ZM78.7268 98.908C78.7268 99.3 78.4588 99.652 77.9228 99.964C77.3948 100.276 76.8508 100.432 76.2908 100.432C75.7308 100.432 75.2708 100.392 74.9108 100.312C74.8388 100.528 74.8028 100.744 74.8028 100.96C74.8028 101.176 74.8388 101.332 74.9108 101.428C74.9828 101.516 75.1628 101.56 75.4508 101.56C76.0508 101.56 76.5628 101.504 76.9868 101.392C77.4188 101.28 77.6428 101.224 77.6588 101.224C77.9868 101.224 78.1508 101.332 78.1508 101.548C78.1508 101.86 77.8908 102.156 77.3708 102.436C76.8588 102.716 76.2628 102.856 75.5828 102.856C74.9108 102.856 74.3708 102.644 73.9628 102.22C73.5548 101.796 73.3508 101.296 73.3508 100.72C73.3508 100.136 73.5188 99.528 73.8548 98.896C74.1988 98.264 74.6268 97.736 75.1388 97.312C75.6508 96.88 76.1588 96.664 76.6628 96.664C77.1748 96.664 77.6468 96.916 78.0788 97.42C78.5108 97.916 78.7268 98.412 78.7268 98.908ZM77.3348 98.716C77.3348 98.636 77.2508 98.52 77.0828 98.368C76.9148 98.216 76.7548 98.14 76.6028 98.14C76.4588 98.14 76.2708 98.248 76.0388 98.464C75.8068 98.672 75.5868 98.944 75.3788 99.28C75.4508 99.288 75.5548 99.292 75.6908 99.292C76.7868 99.292 77.3348 99.1 77.3348 98.716ZM82.3182 98.092C82.2542 98.308 82.1582 98.612 82.0302 99.004C81.9102 99.388 81.7582 99.872 81.5742 100.456C81.3982 101.04 81.3102 101.352 81.3102 101.392C81.3102 101.424 81.3742 101.44 81.5022 101.44C81.6382 101.44 81.9542 101.352 82.4502 101.176C82.9462 100.992 83.2382 100.9 83.3262 100.9C83.5262 100.9 83.6262 101.036 83.6262 101.308C83.6262 101.58 83.3582 101.908 82.8222 102.292C82.2862 102.668 81.7262 102.856 81.1422 102.856C80.8862 102.856 80.5822 102.716 80.2302 102.436C79.8782 102.156 79.7022 101.872 79.7022 101.584C79.7022 101.344 79.8222 100.84 80.0622 100.072C80.3102 99.296 80.4782 98.764 80.5662 98.476C80.2542 98.564 80.0182 98.608 79.8582 98.608C79.6982 98.608 79.5302 98.5 79.3542 98.284C79.1782 98.06 79.0902 97.848 79.0902 97.648C79.0902 97.392 79.7102 97.176 80.9502 97C81.1022 96.256 81.1782 95.612 81.1782 95.068C81.1782 94.828 81.2982 94.708 81.5382 94.708C81.7462 94.708 82.0102 94.836 82.3302 95.092C82.6582 95.34 82.8222 95.588 82.8222 95.836C82.8222 96.076 82.7702 96.416 82.6662 96.856C83.0502 96.84 83.3422 96.832 83.5422 96.832C84.1422 96.832 84.4422 96.968 84.4422 97.24C84.4422 97.416 84.2662 97.568 83.9142 97.696C83.5702 97.816 83.0382 97.948 82.3182 98.092Z" fill="white"/>
</svg>
